<svg xmlns="http://www.w3.org/2000/svg" width="47" height="47" viewBox="0 0 47 47">
  <path id="instagram" d="M0,23.5A23.5,23.5,0,1,1,23.5,47,23.5,23.5,0,0,1,0,23.5ZM17.937,10.087a9.908,9.908,0,0,0-3.276.627,6.9,6.9,0,0,0-3.947,3.947,9.9,9.9,0,0,0-.627,3.276c-.066,1.439-.081,1.9-.081,5.563s.015,4.124.082,5.564a9.9,9.9,0,0,0,.627,3.275,6.9,6.9,0,0,0,3.947,3.947,9.908,9.908,0,0,0,3.275.627c1.439.066,1.9.081,5.564.081s4.124-.016,5.563-.081a9.908,9.908,0,0,0,3.275-.627,6.9,6.9,0,0,0,3.947-3.947,9.9,9.9,0,0,0,.627-3.276c.066-1.439.081-1.9.081-5.563s-.015-4.124-.081-5.563a9.9,9.9,0,0,0-.628-3.276,6.9,6.9,0,0,0-3.947-3.947,9.91,9.91,0,0,0-3.276-.626c-1.439-.066-1.9-.082-5.563-.082S19.376,10.022,17.937,10.087Zm.11,24.4a7.455,7.455,0,0,1-2.506-.465,4.468,4.468,0,0,1-2.561-2.561,7.466,7.466,0,0,1-.464-2.505c-.065-1.423-.079-1.85-.079-5.453s.014-4.03.079-5.453a7.469,7.469,0,0,1,.464-2.506,4.47,4.47,0,0,1,2.561-2.561,7.473,7.473,0,0,1,2.505-.465c1.423-.065,1.85-.078,5.453-.078s4.03.014,5.453.079a7.467,7.467,0,0,1,2.505.464,4.469,4.469,0,0,1,2.561,2.561,7.456,7.456,0,0,1,.465,2.506c.065,1.423.079,1.85.079,5.453s-.014,4.03-.079,5.453a7.473,7.473,0,0,1-.465,2.505,4.468,4.468,0,0,1-2.561,2.561,7.454,7.454,0,0,1-2.506.465c-1.423.065-1.849.079-5.453.079S19.47,34.549,18.047,34.484ZM16.57,23.5a6.929,6.929,0,1,0,6.93-6.929A6.929,6.929,0,0,0,16.57,23.5Zm12.513-7.2A1.619,1.619,0,1,0,30.7,14.677,1.619,1.619,0,0,0,29.084,16.3ZM19,23.5A4.5,4.5,0,1,1,23.5,28,4.5,4.5,0,0,1,19,23.5Z" fill="#de2652"/>
</svg>
