<svg id="twitter" xmlns="http://www.w3.org/2000/svg" width="47.042" height="47.042" viewBox="0 0 47.042 47.042">
  <g id="Grupo_20" data-name="Grupo 20">
    <path id="Caminho_10" data-name="Caminho 10" d="M23.521,0A23.521,23.521,0,1,0,47.042,23.521,23.548,23.548,0,0,0,23.521,0ZM34.014,18.138c.01.233.016.468.016.7a15.4,15.4,0,0,1-23.7,12.97,10.932,10.932,0,0,0,8.015-2.242,5.419,5.419,0,0,1-5.057-3.76,5.435,5.435,0,0,0,2.444-.091,5.415,5.415,0,0,1-4.342-5.308c0-.023,0-.046,0-.068a5.392,5.392,0,0,0,2.451.676,5.422,5.422,0,0,1-1.675-7.228,15.372,15.372,0,0,0,11.158,5.658,5.417,5.417,0,0,1,9.225-4.939,10.806,10.806,0,0,0,3.439-1.314,5.438,5.438,0,0,1-2.384,3,10.763,10.763,0,0,0,3.109-.852A10.89,10.89,0,0,1,34.014,18.138Z" fill="#de2652"/>
  </g>
</svg>
